#define noname_width 24
#define noname_height 24
static char noname_bits[] = {
 0x00,0x00,0x00,0x00,0x00,0x00,0x00,0x00,0x00,0x00,0x00,0x00,0x00,0x00,0x00,
 0x80,0x01,0x00,0x60,0x1e,0x00,0x38,0x10,0x00,0x18,0x10,0x00,0x0c,0x00,0x00,
 0x0c,0x00,0x0f,0x0c,0x80,0x08,0x0c,0x80,0x01,0x0c,0x80,0x03,0x0c,0x00,0x0f,
 0x0c,0x00,0x1c,0x18,0x00,0x18,0x38,0x90,0x10,0xe0,0x8f,0x0f,0x00,0x00,0x00,
 0x00,0x00,0x00,0x00,0x00,0x00,0x00,0x00,0x00,0x00,0x00,0x00};
