#define noname_width 32
#define noname_height 32
static char noname_bits[] = {
 0x00,0x00,0x00,0x00,0x00,0x00,0x00,0x00,0x00,0x00,0x00,0x00,0x00,0x00,0x00,
 0x00,0x00,0x00,0x00,0x00,0x00,0x00,0x00,0x00,0x00,0x00,0x00,0x00,0x00,0x00,
 0x00,0x00,0x00,0x3f,0x01,0x00,0xc0,0xe1,0x01,0x00,0x70,0x80,0x01,0x00,0x30,
 0x00,0x01,0x00,0x38,0x00,0x01,0x00,0x1c,0x00,0x02,0x00,0x1c,0x00,0xc0,0x07,
 0x1c,0x00,0x20,0x04,0x1c,0x00,0x30,0x04,0x1c,0x00,0x70,0x00,0x1c,0x00,0xe0,
 0x00,0x1c,0x00,0xe0,0x03,0x1c,0x00,0x80,0x07,0x38,0x00,0x00,0x0e,0x38,0x00,
 0x10,0x0c,0x70,0x00,0x11,0x0c,0xe0,0x80,0x30,0x0c,0x80,0x7f,0xf0,0x07,0x00,
 0x00,0x00,0x00,0x00,0x00,0x00,0x00,0x00,0x00,0x00,0x00,0x00,0x00,0x00,0x00,
 0x00,0x00,0x00,0x00,0x00,0x00,0x00,0x00};
