#define noname_width 24
#define noname_height 24
static char noname_bits[] = {
 0x00,0x00,0x00,0x00,0x00,0x00,0x00,0x00,0x00,0x00,0x00,0x00,0x00,0x00,0x00,
 0x00,0x83,0x01,0x00,0xc7,0x01,0x00,0xee,0x00,0x00,0x7e,0x00,0x00,0x3c,0x00,
 0x00,0x3c,0x00,0x00,0x3c,0x00,0x00,0x3e,0x00,0x00,0x7f,0x00,0x80,0x77,0x00,
 0x80,0xe3,0x00,0xc0,0x61,0x00,0xe0,0x41,0x00,0xe0,0x00,0x00,0x60,0x00,0x00,
 0x00,0x00,0x00,0x00,0x00,0x00,0x00,0x00,0x00,0x00,0x00,0x00};
