#define noname_width 32
#define noname_height 32
static char noname_bits[] = {
 0x00,0x00,0x00,0x00,0x00,0x00,0x00,0x00,0x00,0x00,0x00,0x00,0x00,0x00,0x00,
 0x00,0x00,0x00,0x00,0x00,0x00,0x00,0x00,0x00,0x00,0x00,0x00,0x00,0x00,0x00,
 0x00,0x00,0xc0,0x2f,0xc0,0x00,0xe0,0x3c,0xf0,0x00,0x70,0x30,0xf0,0x00,0x30,
 0x60,0xe0,0x00,0x70,0x60,0xe0,0x00,0x70,0x00,0xe0,0x00,0xf0,0x01,0xe0,0x00,
 0xe0,0x03,0xe0,0x00,0xc0,0x0f,0xe0,0x00,0x80,0x1f,0xe0,0x00,0x00,0x3e,0xe0,
 0x00,0x00,0x78,0xc0,0x00,0x08,0x78,0xe0,0x00,0x08,0x70,0xe0,0x00,0x18,0x70,
 0xe0,0x00,0x18,0x60,0xe0,0x00,0x38,0x38,0xe0,0x00,0xf0,0x1f,0xf8,0x03,0x00,
 0x06,0x00,0x00,0x00,0x00,0x00,0x00,0x00,0x00,0x00,0x00,0x00,0x00,0x00,0x00,
 0x00,0x00,0x00,0x00,0x00,0x00,0x00,0x00};
