#define noname_width 24
#define noname_height 24
static char noname_bits[] = {
 0x00,0x00,0x00,0x00,0x00,0x00,0x00,0x00,0x00,0x00,0x00,0x00,0x00,0x00,0x00,
 0x00,0x00,0x00,0x00,0x00,0x00,0x70,0x00,0x02,0x98,0x83,0x03,0x0c,0x02,0x03,
 0x0c,0x02,0x03,0x1c,0x00,0x03,0x38,0x00,0x03,0xf0,0x00,0x03,0xc0,0x01,0x03,
 0x80,0x03,0x03,0x00,0x03,0x03,0x04,0x03,0x03,0x0c,0x03,0x03,0xfc,0x81,0x03,
 0x00,0x00,0x00,0x00,0x00,0x00,0x00,0x00,0x00,0x00,0x00,0x00};
