#define noname_width 24
#define noname_height 24
static char noname_bits[] = {
 0x00,0x00,0x00,0x00,0x00,0x00,0x00,0x00,0x00,0x00,0x00,0x00,0x00,0x00,0x00,
 0x00,0x00,0x00,0x00,0x00,0x00,0x70,0x80,0x03,0x98,0xc3,0x07,0x0c,0x22,0x0c,
 0x0c,0x22,0x0c,0x1c,0x00,0x0c,0x38,0x00,0x0c,0xf0,0x00,0x04,0xc0,0x01,0x02,
 0x80,0x03,0x01,0x00,0x83,0x00,0x04,0x43,0x00,0x0c,0x23,0x10,0xfc,0xe1,0x0f,
 0x00,0x00,0x00,0x00,0x00,0x00,0x00,0x00,0x00,0x00,0x00,0x00};
