#define noname_width 32
#define noname_height 32
static char noname_bits[] = {
 0x00,0x00,0x00,0x00,0x00,0x00,0x00,0x00,0x00,0x00,0x00,0x00,0x00,0x00,0x00,
 0x00,0x00,0x00,0x00,0x00,0x00,0x00,0x00,0x00,0x00,0x00,0x00,0x00,0x00,0x00,
 0x00,0x00,0xc0,0x2f,0xf8,0x01,0xe0,0x3c,0xf8,0x03,0x70,0x30,0x8e,0x07,0x30,
 0x20,0x02,0x07,0x70,0x60,0x02,0x0e,0x70,0x40,0x00,0x06,0xf0,0x01,0x00,0x06,
 0xe0,0x03,0x00,0x06,0xc0,0x0f,0x00,0x07,0x80,0x1f,0x80,0x01,0x00,0x3e,0x80,
 0x01,0x00,0x78,0xc0,0x00,0x08,0x70,0x40,0x00,0x08,0x70,0x30,0x00,0x18,0x70,
 0x10,0x10,0x18,0x70,0x0c,0x08,0x38,0x38,0xfc,0x0f,0xf0,0x1f,0xfe,0x0f,0x00,
 0x06,0x00,0x00,0x00,0x00,0x00,0x00,0x00,0x00,0x00,0x00,0x00,0x00,0x00,0x00,
 0x00,0x00,0x00,0x00,0x00,0x00,0x00,0x00};
